<?xml version="1.0" standalone="no"?>
<!DOCTYPE svg PUBLIC "-//W3C//DTD SVG 1.1//EN" "http://www.w3.org/Graphics/SVG/1.1/DTD/svg11.dtd">

<svg width="800" height="600" version="1.1" xmlns="http://www.w3.org/2000/svg">
	<ellipse stroke="black" stroke-width="1" fill="none" cx="56.5" cy="54.5" rx="30" ry="30"/>
	<text x="37.5" y="60.5" font-family="Times New Roman" font-size="20">Start</text>
	<ellipse stroke="black" stroke-width="1" fill="none" cx="56.5" cy="54.5" rx="24" ry="24"/>
	<ellipse stroke="black" stroke-width="1" fill="none" cx="364.5" cy="80.5" rx="30" ry="30"/>
	<text x="340.5" y="86.5" font-family="Times New Roman" font-size="20">Home</text>
	<ellipse stroke="black" stroke-width="1" fill="none" cx="431.5" cy="30.5" rx="30" ry="30"/>
	<text x="413.5" y="36.5" font-family="Times New Roman" font-size="20">#Set</text>
	<ellipse stroke="black" stroke-width="1" fill="none" cx="56.5" cy="209.5" rx="30" ry="30"/>
	<text x="37.5" y="215.5" font-family="Times New Roman" font-size="20">New</text>
	<ellipse stroke="black" stroke-width="1" fill="none" cx="305.5" cy="209.5" rx="30" ry="30"/>
	<text x="282.5" y="215.5" font-family="Times New Roman" font-size="20">S_All</text>
	<ellipse stroke="black" stroke-width="1" fill="none" cx="431.5" cy="209.5" rx="30" ry="30"/>
	<text x="404.5" y="215.5" font-family="Times New Roman" font-size="20">S_Sim</text>
	<ellipse stroke="black" stroke-width="1" fill="none" cx="692.5" cy="209.5" rx="30" ry="30"/>
	<text x="674.5" y="215.5" font-family="Times New Roman" font-size="20">Find</text>
	<ellipse stroke="black" stroke-width="1" fill="none" cx="372.5" cy="386.5" rx="30" ry="30"/>
	<text x="351.5" y="392.5" font-family="Times New Roman" font-size="20">Read</text>
	<ellipse stroke="black" stroke-width="1" fill="none" cx="161.5" cy="495.5" rx="30" ry="30"/>
	<text x="144.5" y="501.5" font-family="Times New Roman" font-size="20">Edit</text>
	<ellipse stroke="black" stroke-width="1" fill="none" cx="593.5" cy="495.5" rx="30" ry="30"/>
	<text x="579.5" y="501.5" font-family="Times New Roman" font-size="20">Del</text>
	<ellipse stroke="black" stroke-width="1" fill="none" cx="593.5" cy="495.5" rx="24" ry="24"/>
	<ellipse stroke="black" stroke-width="1" fill="none" cx="372.5" cy="556.5" rx="30" ry="30"/>
	<text x="348.5" y="562.5" font-family="Times New Roman" font-size="20">Home</text>
	<polygon stroke="black" stroke-width="1" points="86.394,57.023 334.606,77.977"/>
	<polygon fill="black" stroke-width="1" points="334.606,77.977 327.055,72.321 326.214,82.286"/>
	<path stroke="black" stroke-width="1" fill="none" d="M 421.527,58.404 A 55.258,55.258 0 0 1 394.089,78.88"/>
	<polygon fill="black" stroke-width="1" points="421.527,58.404 412.828,62.056 420.997,67.823"/>
	<path stroke="black" stroke-width="1" fill="none" d="M 374.858,52.724 A 56.136,56.136 0 0 1 401.925,32.525"/>
	<polygon fill="black" stroke-width="1" points="374.858,52.724 383.59,49.154 375.475,43.31"/>
	<polygon stroke="black" stroke-width="1" points="352.022,107.782 317.978,182.218"/>
	<polygon fill="black" stroke-width="1" points="317.978,182.218 325.852,177.022 316.758,172.863"/>
	<polygon stroke="black" stroke-width="1" points="378.328,107.123 417.672,182.877"/>
	<polygon fill="black" stroke-width="1" points="417.672,182.877 418.422,173.473 409.548,178.082"/>
	<polygon stroke="black" stroke-width="1" points="392.418,91.48 664.582,198.52"/>
	<polygon fill="black" stroke-width="1" points="664.582,198.52 658.967,190.939 655.307,200.245"/>
	<polygon stroke="black" stroke-width="1" points="82.674,224.161 346.326,371.839"/>
	<polygon fill="black" stroke-width="1" points="346.326,371.839 341.79,363.568 336.903,372.292"/>
	<path stroke="black" stroke-width="1" fill="none" d="M 184.347,476.065 A 460.852,460.852 0 0 1 343.429,393.885"/>
	<polygon fill="black" stroke-width="1" points="184.347,476.065 193.72,474.994 187.491,467.171"/>
	<polygon stroke="black" stroke-width="1" points="399.405,399.77 566.595,482.23"/>
	<polygon fill="black" stroke-width="1" points="566.595,482.23 561.631,474.207 557.208,483.175"/>
	<text x="442.5" y="462.5" font-family="Times New Roman" font-size="20">y / n</text>
	<path stroke="black" stroke-width="1" fill="none" d="M 350.449,406.83 A 394.141,394.141 0 0 1 190.841,489.281"/>
	<polygon fill="black" stroke-width="1" points="350.449,406.83 341.118,408.222 347.612,415.827"/>
	<polygon stroke="black" stroke-width="1" points="564.581,503.482 401.419,548.518"/>
	<polygon fill="black" stroke-width="1" points="401.419,548.518 410.461,551.209 407.8,541.57"/>
	<polygon stroke="black" stroke-width="1" points="372.5,416.5 372.5,526.5"/>
	<polygon fill="black" stroke-width="1" points="372.5,526.5 377.5,518.5 367.5,518.5"/>
	<polygon stroke="black" stroke-width="1" points="316.121,237.557 361.879,358.443"/>
	<polygon fill="black" stroke-width="1" points="361.879,358.443 363.724,349.191 354.371,352.731"/>
	<polygon stroke="black" stroke-width="1" points="422.013,237.96 381.987,358.04"/>
	<polygon fill="black" stroke-width="1" points="381.987,358.04 389.26,352.031 379.773,348.869"/>
	<polygon stroke="black" stroke-width="1" points="666.248,224.021 398.752,371.979"/>
	<polygon fill="black" stroke-width="1" points="398.752,371.979 408.172,372.483 403.332,363.732"/>
	<polygon stroke="black" stroke-width="1" points="317.978,182.218 352.022,107.782"/>
	<polygon fill="black" stroke-width="1" points="352.022,107.782 344.148,112.978 353.242,117.137"/>
	<polygon stroke="black" stroke-width="1" points="417.672,182.877 378.328,107.123"/>
	<polygon fill="black" stroke-width="1" points="378.328,107.123 377.578,116.527 386.452,111.918"/>
	<polygon stroke="black" stroke-width="1" points="664.582,198.52 392.418,91.48"/>
	<polygon fill="black" stroke-width="1" points="392.418,91.48 398.033,99.061 401.693,89.755"/>
	<path stroke="black" stroke-width="1" fill="none" d="M 715.587,228.473 A 22.5,22.5 0 1 1 691.484,239.366"/>
	<text x="724.5" y="292.5" font-family="Times New Roman" font-size="20">again</text>
	<polygon fill="black" stroke-width="1" points="691.484,239.366 684.967,246.188 694.76,248.212"/>
	<polygon stroke="black" stroke-width="1" points="336.829,92.089 84.171,197.911"/>
	<polygon fill="black" stroke-width="1" points="84.171,197.911 93.482,199.432 89.618,190.208"/>
	<path stroke="black" stroke-width="1" fill="none" d="M 286.308,232.405 A 22.5,22.5 0 1 1 275.645,208.199"/>
	<text x="206.5" y="252.5" font-family="Times New Roman" font-size="20">sort</text>
	<polygon fill="black" stroke-width="1" points="275.645,208.199 268.886,201.618 266.768,211.391"/>
	<path stroke="black" stroke-width="1" fill="none" d="M 461.354,208.192 A 22.5,22.5 0 1 1 450.698,232.401"/>
	<text x="500.5" y="252.5" font-family="Times New Roman" font-size="20">sort</text>
	<polygon fill="black" stroke-width="1" points="450.698,232.401 450.407,241.83 459.046,236.794"/>
</svg>
